# xmcd
#
# Track frame offsets:
#	150
#	20469
#	36701
#	52066
#	73997
#	93115
#	108823
#	124979
#	140485
#	157593
#	175941
#	189945
#
# Disc length: 3002 seconds
# Revision: 0
# Processed by: cddbd v1.5.2PL0 Copyright (c) Steve Scherf et al.
# Submitted via: dBpowerAMP V12.0
#
DISCID=a20bb80c
DTITLE=The Rankin Family - Reunion
DYEAR=2007
DGENRE=Celtic
TTITLE0=Fare Thee Well Love
TTITLE1=North Country
TTITLE2=Forty Days and Nights (Radio Edit)
TTITLE3=You Feel the Same Way Too
TTITLE4=Maybe You're Right
TTITLE5=Bells
TTITLE6=Movin' On
TTITLE7=Orangedale Whistle
TTITLE8=Rise Again
TTITLE9=Roving Gypsy Boy (Remix)
TTITLE10=Grey Dusk of Eve (Portobello) (Leis an Lurgainn Remix)
TTITLE11=Mull River Shuffle (Live) (Medley)
EXTD=
EXTT0=
EXTT1=
EXTT2=
EXTT3=
EXTT4=
EXTT5=
EXTT6=
EXTT7=
EXTT8=
EXTT9=
EXTT10=
EXTT11=
PLAYORDER=
